<?xml version="1.0" encoding="UTF-8" standalone="no"?>
<!-- Created with Inkscape (http://www.inkscape.org/) -->

<svg
   width="76mm"
   height="76mm"
   viewBox="0 0 76 76"
   version="1.1"
   id="svg1"
   xml:space="preserve"
   sodipodi:docname="14Bragatec_cien.svg"
   inkscape:export-filename="cien.svg"
   inkscape:export-xdpi="96"
   inkscape:export-ydpi="96"
   inkscape:version="1.3.2 (091e20e, 2023-11-25, custom)"
   xmlns:inkscape="http://www.inkscape.org/namespaces/inkscape"
   xmlns:sodipodi="http://sodipodi.sourceforge.net/DTD/sodipodi-0.dtd"
   xmlns="http://www.w3.org/2000/svg"
   xmlns:svg="http://www.w3.org/2000/svg"><sodipodi:namedview
     id="namedview1"
     pagecolor="#ffffff"
     bordercolor="#000000"
     borderopacity="0.25"
     inkscape:showpageshadow="2"
     inkscape:pageopacity="0.0"
     inkscape:pagecheckerboard="0"
     inkscape:deskcolor="#d1d1d1"
     inkscape:document-units="mm"
     inkscape:zoom="1.4485269"
     inkscape:cx="125.64488"
     inkscape:cy="194.33536"
     inkscape:window-width="1920"
     inkscape:window-height="1009"
     inkscape:window-x="-8"
     inkscape:window-y="-8"
     inkscape:window-maximized="1"
     inkscape:current-layer="layer1"
     showguides="true" /><defs
     id="defs1" /><g
     inkscape:label="Camada 1"
     inkscape:groupmode="layer"
     id="layer1"><path
       style="fill:#000000;stroke-width:1.01039;image-rendering:optimizeSpeed"
       d="M 24.784179,75.669417 C 15.531324,73.655052 7.8841332,67.746298 3.7154098,59.390213 1.0666016,54.080759 0.04235796,46.998526 1.0350285,40.856447 1.7689879,36.315126 3.2213783,32.624853 5.8395636,28.648937 L 7.2606069,26.490972 6.7166972,24.498165 C 5.93838,21.646519 5.7435544,16.139124 6.3383207,13.802114 6.9416163,11.431593 7.6526891,10.039413 9.0655482,8.4625701 10.447358,6.9203829 13.158902,5.4397836 15.497811,4.9503193 17.852686,4.4575149 23.160915,4.780363 26.115101,5.5960559 32.268364,7.2950721 39.64813,11.145515 45.771159,15.851741 c 0.83284,0.64014 1.615006,1.163875 1.738143,1.163875 0.123127,0 1.959059,-1.744258 4.079847,-3.876131 L 55.445124,9.2633443 54.721472,8.5054134 c -1.233864,-1.2923033 -1.023548,-1.776707 2.149615,-4.9508975 2.111821,-2.1125103 3.04939,-2.8741962 3.537874,-2.8741962 0.970311,0 15.472579,14.5638323 15.472579,15.5382563 0,0.49825 -0.743806,1.41633 -2.873258,3.546481 -3.16936,3.170385 -3.645559,3.378084 -4.925033,2.148057 l -0.755325,-0.72614 -3.834874,3.841191 -3.834864,3.841182 2.330558,2.977211 c 7.748182,9.89806 12.30911,20.339916 12.286919,28.129889 -0.01573,5.525856 -2.521478,9.966449 -6.742225,11.948355 -4.062579,1.907646 -9.733395,1.759551 -16.067023,-0.419587 l -2.666936,-0.917584 -0.958489,0.636465 c -2.596482,1.724178 -6.436299,3.367042 -9.855636,4.216732 -3.335234,0.8288 -9.920409,0.942826 -13.201175,0.228589 z m 13.725578,-1.202994 c 2.737129,-0.75788 6.727357,-2.542461 8.644971,-3.866353 1.423289,-0.982613 1.597767,-0.996398 3.430563,-0.271088 4.327594,1.712609 10.033492,2.51395 13.420329,1.884772 3.597517,-0.668318 6.519221,-2.749138 8.033239,-5.721207 3.860404,-7.578125 -0.575662,-21.488588 -11.005073,-34.509383 -1.108064,-1.383374 -2.080815,-2.677276 -2.161689,-2.875329 -0.180248,-0.441449 7.871107,-8.610919 8.486429,-8.610919 0.233051,0 0.70579,0.301259 1.05053,0.669481 0.344729,0.368212 0.813867,0.669471 1.04252,0.669471 0.537919,0 5.629341,-5.083395 5.629341,-5.62046 0,-0.510253 -14.144467,-14.7317129 -14.651964,-14.7317129 -0.461008,0 -5.630501,5.2554564 -5.630501,5.7241216 0,0.1879519 0.300228,0.6247553 0.667179,0.9706698 0.36696,0.3459245 0.667188,0.817454 0.667188,1.0478545 0,0.4103869 -8.204389,8.860449 -8.60285,8.860449 -0.111406,0 -1.313749,-0.821938 -2.671869,-1.826514 C 35.768976,9.5371954 27.53214,5.9465047 20.371629,5.5858739 16.791274,5.4055535 14.971925,5.7086449 12.651943,6.8719425 8.2047519,9.1018697 6.0058654,14.080692 6.7544947,20.225221 c 0.1707379,1.40136 0.5511993,3.451725 0.8454708,4.55636 l 0.5350395,2.008444 -1.7000275,2.54402 c -1.8908135,2.829521 -3.3110387,5.993378 -4.2161082,9.39227 -0.8975468,3.370634 -1.037566,9.143115 -0.3087568,12.728837 2.4954627,12.277589 11.8449035,21.386727 24.3112445,23.68638 0.672347,0.124026 3.143945,0.180229 5.492441,0.124906 3.574894,-0.08421 4.681182,-0.214449 6.795959,-0.800015 z M 27.443805,74.161146 C 20.529258,73.134789 14.910926,70.264429 10.330688,65.418185 6.1385465,60.982581 3.710893,55.856474 2.8343001,49.589205 2.0496949,43.979616 3.0299024,38.07904 5.5985444,32.949229 c 1.4233874,-2.842628 2.4010279,-4.211742 2.9267202,-4.098657 0.2090841,0.04494 0.9062496,1.255806 1.5492564,2.690718 6.07476,13.55624 20.042609,28.27523 33.848793,35.669067 1.577887,0.845045 2.868901,1.698328 2.868901,1.896209 0,0.989485 -4.903438,3.351859 -9.207178,4.435836 -2.083578,0.524788 -8.242608,0.90056 -10.141232,0.618744 z m 9.874361,-1.434831 c 3.562647,-0.930418 8.139673,-2.912424 8.139673,-3.524751 0,-0.124643 -0.750584,-0.60676 -1.66797,-1.071366 C 41.473562,66.957103 37.571148,64.460966 34.625186,62.268113 24.557938,54.774471 15.483952,44.203782 10.332632,33.968643 9.4198369,32.155003 8.611964,30.520915 8.5373574,30.337325 c -0.3256529,-0.801371 -2.5871125,3.253117 -3.790833,6.79645 -3.7105528,10.922585 0.126149,23.586048 9.2319336,30.471048 3.894256,2.944489 7.663718,4.642584 12.252997,5.519794 2.801039,0.535395 8.262827,0.339174 11.086711,-0.398302 z M 26.173464,71.240311 C 17.989575,69.680695 11.427945,64.701367 7.8273467,57.318289 5.848697,53.261038 5.3317801,50.931346 5.3317801,46.071034 c 0,-4.33843 0.3834269,-6.424048 1.8461914,-10.042198 0.7217586,-1.785269 1.0978475,-2.410126 1.4506091,-2.410126 0.1105239,0 0.9493617,1.341037 1.8640844,2.980085 5.0334,9.01911 12.483569,17.704268 21.113563,24.613478 2.665644,2.13413 7.062019,5.177725 9.311724,6.446466 0.588785,0.332059 1.070521,0.796544 1.070521,1.032197 0,0.485942 -2.725893,1.643066 -5.411228,2.297041 -2.461059,0.599362 -7.891677,0.73108 -10.403781,0.252334 z m 8.641148,-0.523806 c 2.003632,-0.352109 5.643785,-1.430793 6.389971,-1.893547 0.156564,-0.09706 -0.473677,-0.621901 -1.400565,-1.166233 C 28.273297,60.885103 15.742981,47.949824 10.019973,36.910105 9.3931821,35.701019 8.7730409,34.645219 8.6418818,34.563884 8.3646567,34.391955 7.0058447,37.805311 6.371906,40.266094 6.1319933,41.197371 5.8677506,43.125472 5.7846996,44.550759 4.8512465,60.570302 19.160214,73.467505 34.814612,70.716505 Z m 23.319771,0.471104 c -1.302674,-0.178144 -5.939756,-1.382595 -6.944068,-1.80367 -0.510806,-0.214156 -0.928734,-0.532773 -0.928734,-0.708033 0,-0.17525 0.882134,-1.245138 1.960311,-2.377525 5.42898,-5.701987 8.182197,-12.542514 8.180069,-20.323884 -10e-4,-4.868632 -0.952629,-9.201272 -2.850029,-12.98033 -0.770353,-1.534302 -0.741718,-2.686041 0.0697,-2.802406 0.426945,-0.06123 1.048855,0.555638 2.699809,2.677915 4.617211,5.935362 8.614247,12.955967 10.308564,18.106466 2.914966,8.861157 1.799872,15.828514 -2.994943,18.713095 -2.298272,1.382646 -6.036214,1.972169 -9.500648,1.498372 z m 7.378306,-1.402432 c 4.135546,-1.558706 6.369223,-5.653526 5.997118,-10.994032 -0.38086,-5.466262 -3.263327,-12.771548 -7.785028,-19.730292 -1.79139,-2.75688 -5.828117,-8.120057 -6.111772,-8.120057 -0.06113,0 0.304131,0.901754 0.811608,2.003909 3.112351,6.759426 3.631942,14.684406 1.448849,22.098303 -1.135368,3.855777 -3.815932,8.426641 -6.962486,11.872355 l -1.566439,1.715372 2.460858,0.698519 c 1.35347,0.384183 3.121378,0.815319 3.928669,0.958079 2.270261,0.40148 6.024059,0.159147 7.778623,-0.502156 z M 60.99702,69.086698 c -1.089827,-0.765977 -0.515687,-2.526177 0.825951,-2.532209 1.035753,-0.0051 3.292891,-1.25277 4.037786,-2.23272 1.979183,-2.603767 1.940026,-7.813677 -0.102772,-13.673252 -0.70116,-2.011206 -0.692727,-2.463799 0.05497,-2.955429 1.266816,-0.832899 1.992688,-0.113247 2.955767,2.930399 1.604878,5.071938 1.796221,10.645313 0.468845,13.656359 -0.769446,1.745453 -2.473708,3.444813 -4.231893,4.219717 -2.12104,0.934831 -3.273777,1.103664 -4.008706,0.587135 z m 4.294036,-1.664321 c 4.289245,-2.342526 5.254291,-8.219519 2.698498,-16.433532 -0.76993,-2.474467 -1.11472,-3.014376 -1.695083,-2.654332 -0.320017,0.198538 -0.265883,0.594806 0.343519,2.514466 1.495934,4.712319 1.846967,9.220239 0.937005,12.032675 -0.673694,2.082177 -2.847265,3.925239 -5.137619,4.356385 -1.04367,0.196464 -1.562152,0.824559 -0.979136,1.186121 0.485084,0.300824 2.331194,-0.181687 3.832816,-1.001783 z M 45.057522,66.528032 C 37.950243,62.57661 32.736185,58.607535 26.628448,52.499322 20.071037,45.9414 15.515631,39.747217 11.910785,32.487102 9.3299754,27.289367 9.3161124,27.204743 10.793744,25.668012 c 2.668563,-2.775292 7.131052,-5.582728 10.926731,-6.874232 7.192041,-2.447129 15.926282,-1.790208 22.307306,1.677782 0.838661,0.455801 1.654636,0.828729 1.813268,0.828729 0.158632,0 2.985754,-2.708612 6.282488,-6.019126 L 58.117609,9.2620387 57.258654,8.3727742 C 56.786228,7.8836844 56.3997,7.3294642 56.3997,7.1411783 c 0,-0.4629669 3.571987,-4.0507325 4.032914,-4.0507325 0.506136,0 13.047055,12.6176642 13.047055,13.1268852 0,0.516752 -3.482257,4.011786 -3.997107,4.011786 -0.209508,0 -0.777434,-0.38564 -1.262085,-0.856998 l -0.881166,-0.856997 -6.052664,6.056463 -6.052675,6.056474 1.123173,2.425702 c 3.285598,7.095877 3.841753,14.215944 1.665388,21.320788 -0.805677,2.630163 -2.697762,6.381964 -4.253115,8.433473 -1.550966,2.04571 -4.900695,5.356639 -5.416725,5.353977 -0.197748,-10e-4 -1.680579,-0.736312 -3.295171,-1.633967 z m 6.140963,-1.918708 c 7.962704,-8.827281 9.62906,-21.56383 4.149455,-31.71561 -0.449005,-0.831847 -0.816369,-1.819915 -0.816369,-2.195697 0,-0.534757 1.326186,-2.008616 6.101726,-6.781136 3.998953,-3.996442 6.291143,-6.09789 6.651385,-6.09789 0.302316,0 0.927675,0.319174 1.389692,0.709268 l 0.840011,0.709258 1.583011,-1.571873 1.583001,-1.571873 L 66.609879,9.9999396 60.539351,3.9061084 59.003273,5.431383 c -0.844844,0.838901 -1.536078,1.6147364 -1.536078,1.7240764 0,0.1093299 0.230448,0.4143747 0.512096,0.6778616 0.281659,0.2634868 0.597107,0.8192556 0.701009,1.2350473 0.177171,0.7090047 -0.190022,1.1375287 -5.908618,6.8956377 -4.995408,5.029925 -6.229917,6.139661 -6.829938,6.139661 -0.402829,0 -1.487128,-0.409729 -2.409558,-0.910509 -3.98703,-2.164504 -8.988621,-3.256122 -13.819947,-3.016269 -6.368496,0.316168 -11.450057,2.318569 -16.642445,6.557982 -2.443501,1.995043 -2.669758,2.361828 -2.234716,3.622735 l 0.340749,0.987613 1.19525,-1.235786 c 2.485304,-2.569597 6.900043,-5.47019 8.325709,-5.47019 1.048783,0 3.67242,2.980328 5.001908,5.681927 1.180308,2.398456 1.64485,4.40697 2.123329,9.180523 0.391691,3.907709 0.864243,5.632656 2.420947,8.837129 3.825274,7.874313 11.242938,13.264251 18.884394,13.722066 2.147658,0.128672 2.468594,0.210765 2.468594,0.631425 0,0.265937 -1.134067,1.660991 -2.520157,3.100103 -1.38608,1.439123 -2.496948,2.634009 -2.468584,2.655304 0.02834,0.02125 0.41001,0.223437 0.848111,0.449212 0.735556,0.379062 0.851773,0.371035 1.517812,-0.104856 0.396685,-0.283436 1.398093,-1.265675 2.225345,-2.182752 z M 37.705653,50.689528 c -2.542277,-1.719127 -2.627892,-5.428327 -0.16776,-7.268424 1.060656,-0.793335 3.829215,-0.799833 4.88155,-0.01144 1.916908,1.436096 2.450277,3.507049 1.441667,5.597707 -1.05529,2.187428 -4.155406,3.034629 -6.155457,1.682165 z m 4.8163,-0.869163 c 2.733852,-2.628199 0.585749,-7.074217 -3.125907,-6.469826 -2.689067,0.437876 -4.017311,3.475895 -2.521337,5.766904 1.191459,1.824641 4.10341,2.187104 5.647244,0.702922 z m 4.804005,-9.774652 c -0.666069,-0.668358 -0.686202,-1.653086 -0.04569,-2.234724 1.021369,-0.927503 2.714455,-0.23036 2.714455,1.117701 0,0.728771 -0.895125,1.65261 -1.601247,1.65261 -0.293571,0 -0.773945,-0.241018 -1.067505,-0.535587 z m 1.712704,-0.352442 c 0.566917,-0.415964 0.4799,-1.210079 -0.17817,-1.625921 -0.997302,-0.630211 -2.063284,0.92811 -1.112229,1.625921 0.264189,0.193842 0.554521,0.352442 0.6452,0.352442 0.09068,0 0.381011,-0.1586 0.645199,-0.352442 z M 33.228128,39.158129 c -0.818781,-0.874548 -0.78363,-2.413993 0.07478,-3.275363 0.9302,-0.933393 2.105712,-0.873951 3.134626,0.158499 0.702894,0.705301 0.791576,0.950124 0.654781,1.807587 -0.08705,0.545496 -0.415376,1.20269 -0.729664,1.460438 -0.836845,0.686303 -2.422045,0.609857 -3.134529,-0.151161 z m 2.889098,-0.451368 c 0.713979,-0.716434 0.672897,-1.49148 -0.121302,-2.288408 -0.360283,-0.361521 -0.900703,-0.657305 -1.20094,-0.657305 -0.766733,0 -1.613376,0.937492 -1.613376,1.786504 0,1.543088 1.832083,2.266526 2.935618,1.159209 z M 52.396581,28.185777 c -1.15552,-0.583652 -1.019815,-1.585253 0.424747,-3.13492 1.368106,-1.467644 2.152742,-1.819398 3.019766,-1.35379 1.058548,0.568471 0.72676,1.645414 -1.022831,3.319978 -0.869788,0.832494 -1.620372,1.511843 -1.667971,1.509677 -0.04761,-0.002 -0.38676,-0.155594 -0.753711,-0.340945 z m 2.079423,-1.874529 c 1.151315,-1.177133 1.343888,-1.628906 0.830127,-1.947513 -0.337961,-0.209591 -3.221266,2.538524 -3.014914,2.873558 0.309487,0.502481 1.126178,0.156313 2.184787,-0.926045 z m 2.243945,-2.922181 c -0.83872,-0.841603 -0.367424,-1.617024 3.093732,-5.090065 3.485978,-3.497969 4.107746,-3.87363 4.973499,-3.004902 0.852439,0.855358 0.479366,1.480771 -2.970089,4.978954 -3.451866,3.500641 -4.236069,3.980045 -5.097142,3.116013 z m 4.564408,-3.653392 c 1.71687,-1.744258 3.12158,-3.303732 3.12158,-3.46549 0,-0.961632 -0.908238,-0.344518 -3.898752,2.649079 -1.818775,1.820643 -3.306861,3.462697 -3.306861,3.649019 0,0.915954 1.242699,0.05405 4.084033,-2.832608 z M 48.640645,63.410551 51.189306,60.799579 48.713652,60.608307 C 42.616767,60.137253 36.586353,56.582331 32.378326,50.978663 29.283616,46.857557 27.761829,42.871378 27.308926,37.699847 26.926377,33.331671 26.375953,31.001827 25.142147,28.528281 24.05204,26.342827 21.816054,23.59876 20.883306,23.3017 c -1.034794,-0.329558 -5.731042,2.73596 -8.346908,5.44852 -0.973276,1.009252 -1.013712,1.117286 -0.735085,1.964031 0.40873,1.242112 2.962909,5.747583 4.98644,8.795885 5.110901,7.699186 13.0217,15.890467 20.615998,21.346931 2.546695,1.829793 7.979356,5.164457 8.413665,5.164457 0.151017,0 1.421474,-1.174938 2.823229,-2.610973 z M 9.1986913,25.071576 C 8.2003944,24.452468 7.4843247,17.881399 8.0826213,14.829858 10.406455,2.9774419 26.533621,4.0061065 44.226074,17.135259 c 1.614531,1.198115 2.045794,1.657772 1.981341,2.111812 -0.113192,0.797323 -0.684134,0.70773 -3.551764,-0.557317 -4.423165,-1.951289 -6.28041,-2.319379 -11.742476,-2.327284 -4.220395,-0.0061 -5.063009,0.06751 -6.93874,0.606396 -5.608585,1.611234 -9.65616,3.831273 -13.343841,7.318929 -0.7309023,0.691252 -1.1825025,0.938444 -1.4319027,0.783781 z m 3.9152757,-3.963214 c 1.928082,-1.457371 5.472722,-3.294937 8.072759,-4.184971 7.045761,-2.411877 16.213464,-1.879043 22.768987,1.323345 l 0.834938,0.407877 -0.667188,-0.556447 C 42.342765,16.613043 36.953848,13.233026 33.8488,11.653724 27.914539,8.6354312 22.655939,7.2032925 18.388959,7.4433588 13.981952,7.6912994 11.296344,9.2962587 9.6397348,12.672014 c -0.855524,1.743348 -0.8771497,1.873396 -0.8771497,5.274789 0,2.013645 0.1486008,4.066359 0.351641,4.857437 l 0.35164,1.370055 1.0641209,-0.958565 c 0.585267,-0.527206 1.748057,-1.475528 2.58398,-2.107368 z"
       id="path1" /><path
       style="fill:#008000;stroke:#000000;stroke-width:0.488156"
       d=""
       id="path2"
       transform="scale(0.26458333)" /><path
       style="fill:#008000;stroke:#000000;stroke-width:0.488156"
       d=""
       id="path3"
       transform="scale(0.26458333)" /><path
       style="fill:#008000;stroke:#000000;stroke-width:0.488156"
       d=""
       id="path4"
       transform="scale(0.26458333)" /><path
       style="fill:#000000;stroke:#000000;stroke-width:0.488156"
       d="M 98.83087,279.23094 C 75.241548,274.6775 56.066758,264.34103 39.72308,247.36794 14.822537,221.50846 4.7240881,184.63529 12.752257,148.88751 c 2.955089,-13.1584 11.757931,-32.68868 17.072987,-37.87869 1.827769,-1.78477 1.906945,-1.81138 2.850198,-0.95774 0.533612,0.48291 3.704667,6.3982 7.046789,13.14508 6.435933,12.9925 10.317031,19.80205 16.894314,29.64178 12.094255,18.09323 25.755269,34.46081 42.560217,50.99238 21.252558,20.90684 40.451248,35.59442 63.867268,48.8604 4.96698,2.81397 10.07468,5.87388 11.35043,6.79979 2.10359,1.52676 2.26266,1.7768 1.70854,2.68584 -1.53061,2.51098 -11.62971,7.92141 -21.6017,11.57277 -12.83456,4.69953 -20.387,5.92587 -38.32023,6.22232 -10.86644,0.17964 -13.0708,0.0856 -17.3502,-0.7405 z m 27.3574,-1.96769 c 9.14378,-0.75227 14.50266,-1.83626 22.94332,-4.64097 12.7458,-4.23524 22.69924,-9.01668 22.69924,-10.90425 0,-0.94765 -0.0798,-1.00083 -9.27496,-6.18137 -12.68997,-7.14951 -24.0791,-14.72312 -35.87945,-23.85931 -30.392566,-23.53086 -58.889016,-55.15866 -77.89182,-86.45101 -4.085145,-6.7271 -13.011735,-23.43888 -14.927839,-27.94692 -0.907876,-2.13597 -1.560921,-3.05097 -2.177508,-3.05097 -1.41013,0 -4.149333,4.08638 -8.01488,11.95671 -7.8352,15.95263 -11.052879,29.4043 -11.093726,46.3779 -0.05124,21.29076 5.672534,40.80962 17.113066,58.35797 12.438036,19.07839 32.822007,34.66488 54.767235,41.87747 6.272006,2.06138 14.310599,3.94533 18.908532,4.43147 5.45347,0.5766 16.03718,0.59203 22.82879,0.0333 z"
       id="path5"
       transform="scale(0.26458333)" /><path
       style="fill:#000000;stroke:#000000;stroke-width:0.488156"
       d="M 96.654842,278.80997 C 78.625648,274.98474 62.202868,267.18425 49.059655,256.20321 23.882636,235.16803 10.18444,205.99373 10.131941,173.2953 c -0.02876,-17.91272 3.676775,-33.4305 11.948235,-50.03597 3.144178,-6.31213 7.487463,-12.86144 8.980386,-13.54166 1.573977,-0.71715 1.751838,-0.46104 6.861679,9.88049 2.321569,4.6985 5.949237,11.7018 8.061483,15.56289 21.184567,38.72441 59.724836,80.08721 99.127716,106.38743 6.05349,4.04051 9.31508,6.02444 24.03453,14.61952 3.22183,1.88131 6.23785,3.84219 6.70227,4.35751 0.75732,0.84033 0.76928,1.04418 0.11602,1.97685 -1.82705,2.60849 -13.29899,8.4625 -23.60286,12.04431 -11.74904,4.08418 -18.70296,5.12206 -36.4244,5.43639 -12.52904,0.22223 -12.7767,0.20716 -19.282158,-1.17309 z m 34.170908,-2.04111 c 6.17575,-0.78035 10.85667,-1.82122 16.84137,-3.74493 10.44358,-3.35696 21.48674,-8.23813 23.37681,-10.33274 1.20741,-1.33808 0.67015,-1.98761 -3.559,-4.3027 -35.44563,-19.40331 -67.42662,-46.105 -94.024282,-78.50309 -14.544035,-17.71581 -24.71513,-33.27499 -35.500901,-54.30733 -3.201163,-6.24229 -6.04205,-11.34962 -6.313083,-11.34962 -1.419618,0 -5.856173,7.1992 -9.74669,15.81596 -6.437211,14.25719 -9.257908,27.30502 -9.244508,42.76273 0.0069,7.99001 0.133692,9.66112 1.296061,17.08545 2.745449,17.53587 10.716035,35.52136 21.849818,49.30374 10.885928,13.47556 27.170534,25.2347 44.256201,31.95747 5.917961,2.32857 18.452322,5.53405 23.876674,6.10612 5.04372,0.53193 21.11857,0.23838 26.89153,-0.49106 z"
       id="path6"
       transform="scale(0.26458333)" /><path
       style="fill:#000000;stroke:#000000;stroke-width:0.488156"
       d="M 96.101864,283.15396 C 86.246536,280.96049 75.483112,277.21244 67.51865,273.20068 53.736538,266.25854 40.115671,255.39591 30.802394,243.9195 17.492028,227.51763 8.3584205,205.94211 6.3012882,186.04269 5.4658851,177.96152 5.9739617,160.46671 7.2527414,153.28091 9.9010535,138.39935 15.772328,124.49139 25.916101,109.07089 c 2.660742,-4.04485 4.836259,-7.6694 4.834482,-8.05457 -0.0018,-0.38517 -0.764987,-3.718435 -1.696023,-7.407257 C 25.609553,79.959729 24.509284,66.348526 26.138436,57.534268 29.125285,41.374403 37.344951,30.752437 51.589014,24.645441 c 6.011892,-2.577537 10.410581,-3.314299 19.681728,-3.296606 19.080159,0.03641 36.619628,4.755304 58.618648,15.771014 13.01708,6.518121 23.67223,13.176721 40.47697,25.294825 4.16153,3.000928 8.06335,5.586669 8.6707,5.746091 1.51261,0.397042 4.96961,-2.708298 17.65266,-15.856936 11.82502,-12.259122 15.65804,-16.592244 15.65804,-17.700996 0,-0.437604 -1.09835,-2.169664 -2.44078,-3.84902 -1.34243,-1.679355 -2.44078,-3.233641 -2.44078,-3.453967 0,-1.202824 15.90059,-17.8839774 19.4695,-20.4252717 l 1.48451,-1.0570604 4.53349,4.0474628 c 6.03472,5.3877433 37.08392,36.5170613 44.63671,44.7518773 4.72745,5.154344 5.90056,6.705098 5.55735,7.346383 -1.58477,2.961168 -18.39048,19.373267 -20.33856,19.862204 -0.8456,0.212236 -1.64464,-0.09211 -2.89732,-1.103539 -3.04511,-2.458646 -4.73509,-3.593291 -5.35199,-3.593291 -1.60255,0 -25.94826,23.940889 -30.56805,30.059749 -2.36928,3.13809 -2.97305,1.75832 5.5646,12.71662 18.52882,23.78228 29.77254,42.56988 38.09517,63.6548 11.96103,30.30262 12.699,55.43273 2.09689,71.40548 -3.69215,5.56246 -10.2055,11.08223 -16.55302,14.02793 -6.2688,2.90918 -11.13774,3.97386 -19.36887,4.23534 -12.71106,0.4038 -23.96093,-1.48074 -39.02229,-6.5369 -6.95384,-2.33443 -9.91849,-3.11572 -11.09702,-2.92448 -0.88448,0.14354 -3.75377,1.6131 -6.37619,3.2657 -10.75015,6.77455 -25.89169,12.99733 -38.06617,15.64422 -4.23991,0.92181 -6.70226,1.05998 -21.86348,1.22681 -15.49044,0.17046 -17.478859,0.10045 -21.299596,-0.74992 z m 38.312066,-3.68066 c 9.93962,-1.28612 22.0837,-5.22478 32.64726,-10.58838 6.33059,-3.21433 10.51651,-6.52279 9.9897,-7.89563 -0.36951,-0.96294 -4.11599,-3.36747 -15.47133,-9.92968 -32.63859,-18.86174 -63.631198,-45.91764 -89.171444,-77.84482 -13.67566,-17.09558 -22.89005,-31.64314 -33.342744,-52.64109 -6.371118,-12.79864 -6.730101,-13.17625 -9.629084,-10.12846 -3.315429,3.48562 -9.725015,15.49306 -13.094045,24.52983 -6.9360588,18.60463 -8.5958941,40.14935 -4.610512,59.84459 6.168064,30.48179 24.034395,55.5928 50.975148,71.64525 11.055981,6.58763 23.445326,10.97674 39.317681,13.92887 2.82622,0.52566 26.38811,-0.14395 32.38937,-0.92048 z m 102.09754,-10.02854 c 11.23924,-1.27237 19.18616,-4.69918 25.44245,-10.97111 6.52367,-6.53998 9.80212,-14.43221 10.97197,-26.41293 1.21433,-12.43617 -1.92017,-30.19264 -8.16038,-46.22742 -7.39029,-18.98999 -23.92962,-46.33386 -39.79077,-65.78466 -4.24631,-5.20732 -6.43275,-6.78396 -8.14042,-5.87005 -2.48102,1.3278 -2.02344,5.18641 1.55237,13.09077 4.34294,9.60009 6.97504,18.74461 8.68133,30.16088 0.99177,6.63562 0.85717,26.38142 -0.22628,33.19459 -1.85535,11.66726 -4.70152,20.70139 -9.84265,31.24197 -5.23464,10.73229 -10.51409,18.24198 -20.7625,29.53342 -7.66684,8.44714 -7.69922,8.55235 -3.29302,10.70285 3.30704,1.61405 22.14355,6.59955 27.57754,7.29901 4.69045,0.60375 10.88811,0.6203 15.99036,0.0427 z m -51.09963,-13.15583 c 2.57111,-1.86249 10.65929,-9.91476 14.70138,-14.63608 8.7034,-10.16592 17.23417,-27.08199 20.79189,-41.22918 2.50539,-9.96269 3.31036,-16.39051 3.33618,-26.64022 0.0328,-13.03502 -1.55317,-23.01047 -5.60748,-35.26903 -1.77347,-5.36224 -6.31305,-16.2103 -8.67044,-20.71945 l -0.97136,-1.85797 22.75954,-22.792159 22.75955,-22.792154 3.09286,2.893221 c 3.88269,3.63207 4.93838,3.939212 7.34753,2.137713 2.37477,-1.775794 9.79279,-9.199516 11.58092,-11.589824 1.13089,-1.511731 1.30911,-2.087076 0.94489,-3.050334 -0.97575,-2.580504 -39.73539,-42.107207 -46.64865,-47.571819 -2.12085,-1.676438 -2.59222,-1.862342 -3.5092,-1.383988 -1.66986,0.871115 -13.82346,13.262058 -14.21355,14.491133 -0.42087,1.326039 0.41931,2.73254 3.71669,6.221951 l 2.34273,2.47916 -22.63019,22.538825 c -12.4466,12.39635 -22.98995,22.538821 -23.42967,22.538821 -0.43972,0 -3.84157,-1.523944 -7.55967,-3.386542 -10.09126,-5.055253 -19.58057,-8.125938 -31.30295,-10.129447 -7.38464,-1.262131 -27.32042,-1.253559 -34.903141,0.01501 -15.118785,2.529331 -27.649157,7.398069 -40.733426,15.827177 -10.011967,6.44988 -19.880172,15.221444 -21.296386,18.929746 -0.774099,2.02695 -0.763977,2.27207 0.228797,5.54056 1.141873,3.75937 10.124307,22.14064 14.798247,30.28252 13.543771,23.59286 33.414225,48.05003 56.710409,69.80092 14.73381,13.75649 26.18333,22.90663 40.08425,32.03421 12.03768,7.90415 31.39974,18.77455 33.4407,18.77455 0.45529,0 1.73308,-0.65579 2.83955,-1.45732 z M 39.540746,92.627557 C 51.63687,82.223942 57.625617,78.081296 67.609574,73.211264 79.386615,67.466593 92.205542,63.331679 100.841,62.492037 c 6.31816,-0.61433 20.65108,-0.615111 29.15997,-0.0016 11.12699,0.802304 15.69109,2.033379 30.98734,8.358252 7.59882,3.142054 9.81265,3.864627 11.47166,3.744233 1.9756,-0.143366 2.06145,-0.217717 2.20293,-1.907771 0.13273,-1.585525 -0.11814,-2.001112 -2.54915,-4.222923 -1.48301,-1.35538 -5.64299,-4.568489 -9.24441,-7.140235 C 119.66198,30.467925 77.975918,17.982402 52.232667,28.184867 c -9.280516,3.678018 -16.767844,11.49559 -20.039869,20.923768 -2.049461,5.905422 -2.539966,9.388428 -2.536705,18.012783 0.0059,15.691372 2.647067,28.068957 5.989365,28.068957 0.503546,0 2.256426,-1.153268 3.895288,-2.562818 z"
       id="path7"
       transform="scale(0.26458333)" /><path
       style="fill:#000000;stroke:#000000;stroke-width:0.690356"
       d=""
       id="path8"
       transform="scale(0.26458333)" /><path
       style="fill:#000000;stroke:#000000;stroke-width:0.690356"
       d=""
       id="path9"
       transform="scale(0.26458333)" /><path
       style="fill:#000000;stroke:#000000;stroke-width:0.0862946"
       d="m 216.65599,86.455716 c -0.2057,-0.119573 -0.40181,-0.592752 -0.40181,-0.969507 0,-0.47092 0.61305,-1.304219 2.67049,-3.629877 4.66055,-5.268134 14.06666,-14.741574 18.34223,-18.473533 3.27344,-2.857238 5.09355,-3.880305 5.7178,-3.213914 0.43117,0.460284 0.49294,1.232264 0.14058,1.756996 -1.7123,2.549936 -13.03537,14.426351 -18.47081,19.373458 -4.47885,4.076463 -7.02855,5.720182 -7.99848,5.156377 z"
       id="path10"
       transform="scale(0.26458333)" /><path
       style="fill:#000000;stroke:#000000;stroke-width:0.0862946"
       d="m 198.43435,103.58817 c -0.31502,-0.17276 -0.63453,-0.4564 -0.74501,-0.66135 -0.3269,-0.60646 2.29554,-3.748066 5.8545,-7.013514 2.40803,-2.209443 4.66031,-3.836646 5.31086,-3.836938 0.25211,-1.14e-4 0.98575,0.780389 1.08844,1.157971 0.25438,0.935277 -0.55321,2.32688 -2.77505,4.78182 -2.51337,2.777051 -4.88157,4.715371 -6.63206,5.428211 -0.70188,0.28582 -1.71618,0.35522 -2.10168,0.1438 z"
       id="path11"
       transform="scale(0.26458333)" /><path
       style="fill:#000000;stroke:#000000;stroke-width:0.122039"
       d="m 227.94147,180.31254 c 0.0369,-1.27531 0.0714,-4.92733 0.0766,-8.11559 0.008,-4.65938 0.0291,-5.40173 0.10939,-3.78321 0.1083,2.18404 -0.001,11.33756 -0.15705,13.11919 -0.0625,0.71521 -0.0726,0.2895 -0.029,-1.22039 z"
       id="path12"
       transform="scale(0.26458333)" /><path
       style="fill:#000000;stroke:#000000;stroke-width:0.122039"
       d=""
       id="path13"
       transform="scale(0.26458333)" /><path
       style="fill:#000000;stroke:#000000;stroke-width:0.122039"
       d=""
       id="path14"
       transform="scale(0.26458333)" /><path
       style="fill:#000000;stroke:#000000;stroke-width:0.690356"
       d="m 166.66759,245.64375 c -9.6956,-5.50295 -26.83656,-17.06321 -35.26977,-23.78676 -23.23638,-18.52566 -46.940995,-43.49145 -63.493852,-66.87195 -6.350988,-8.97062 -16.79812,-26.36816 -20.78102,-34.60651 l -3.141111,-6.49716 1.653792,-2.29653 c 5.478513,-7.60769 27.300974,-23.219207 32.456829,-23.219207 3.860045,0 15.538901,15.854817 19.265795,26.154597 2.788447,7.70624 3.733887,12.40788 5.429937,27.00285 1.57366,13.54177 3.68291,22.56505 7.18203,30.72445 8.97404,20.92608 26.76551,39.85171 46.39553,49.35314 9.93627,4.80941 18.55906,7.10915 29.92636,7.98152 l 6.45423,0.49533 -8.87048,8.9256 c -4.87877,4.90908 -9.36056,9.1981 -9.95953,9.53115 -0.77782,0.4325 -2.84935,-0.39355 -7.24874,-2.89052 z"
       id="path15"
       transform="scale(0.26458333)" /><path
       style="fill:#000000;stroke:#000000;stroke-width:0.690356"
       d="M 108.38597,268.10647 C 93.877412,266.76254 78.066217,261.36523 66.161976,253.69289 37.396087,235.15316 20.783925,203.35579 22.347584,169.8277 c 0.505289,-10.83444 1.579583,-16.8076 4.621051,-25.69343 2.122602,-6.2013 5.342798,-13.35583 5.789347,-12.86259 0.120119,0.13268 2.554746,4.46951 5.410282,9.63739 13.115543,23.73623 28.605118,43.90065 50.881151,66.23741 20.557815,20.61385 40.243715,36.39968 60.498545,48.51289 6.9898,4.18018 6.99185,4.17276 -1.93342,7.00106 -13.8219,4.37998 -28.59557,6.43099 -39.22857,5.44604 z"
       id="path16"
       transform="scale(0.26458333)" /><path
       style="fill:#000000;stroke:#000000;stroke-width:0.690356"
       d="m 145.32005,189.96173 c -13.12787,-6.23849 -8.74148,-25.65688 5.79558,-25.65688 6.00898,0 10.08768,2.57592 12.57075,7.9391 2.62161,5.66241 0.86318,12.19156 -4.43923,16.48316 -3.36478,2.72334 -9.62627,3.27841 -13.9271,1.23462 z"
       id="path17"
       transform="scale(0.26458333)" /><path
       style="fill:#000000;stroke:#000000;stroke-width:0.690356"
       d="m 127.37098,145.53957 c -2.32589,-2.76416 -1.96047,-5.59359 1.08007,-8.36299 2.57301,-2.34356 4.18564,-2.06306 7.37659,1.28309 2.77292,2.90778 2.82731,4.65704 0.2257,7.25866 -2.86021,2.8602 -6.1828,2.79179 -8.68236,-0.17876 z"
       id="path18"
       transform="scale(0.26458333)" /><path
       style="fill:#000000;stroke:#000000;stroke-width:0.690356"
       d="m 180.57754,149.41287 c -1.47561,-1.47561 -1.36287,-3.28204 0.29867,-4.78572 2.85144,-2.58052 7.02312,1.68473 4.43974,4.53933 -1.45981,1.61307 -3.27723,1.70757 -4.73841,0.24639 z"
       id="path19"
       transform="scale(0.26458333)" /></g></svg>
